<svg height="512pt" viewBox="0 0 512 512" width="512pt" xmlns="http://www.w3.org/2000/svg"><path d="m35.308594 0h229.519531c19.5 0 35.308594 15.808594 35.308594 35.308594v441.382812c0 19.5-15.808594 35.308594-35.308594 35.308594h-229.519531c-19.5 0-35.308594-15.808594-35.308594-35.308594v-441.382812c0-19.5 15.808594-35.308594 35.308594-35.308594zm0 0" fill="#bdc3c7"/><path d="m0 70.621094h300.136719v370.757812h-300.136719zm0 0" fill="#2980ba"/><path d="m300.136719 70.621094v2.117187c-62.941407 29.574219-221.925781 125.441407-300.136719 364.933594v-367.050781zm0 0" fill="#3b97d3"/><path d="m123.585938 44.136719h-8.828126c-4.875 0-8.828124-3.949219-8.828124-8.828125 0-4.875 3.953124-8.824219 8.828124-8.824219h8.828126c4.875 0 8.828124 3.949219 8.828124 8.824219 0 4.878906-3.953124 8.828125-8.828124 8.828125zm0 0" fill="#95a5a5"/><path d="m185.378906 44.136719h-26.480468c-4.878907 0-8.828126-3.949219-8.828126-8.828125 0-4.875 3.949219-8.824219 8.828126-8.824219h26.480468c4.875 0 8.828125 3.949219 8.828125 8.824219 0 4.878906-3.953125 8.828125-8.828125 8.828125zm0 0" fill="#95a5a5"/><path d="m185.378906 485.515625h-70.621094c-4.875 0-8.828124-3.949219-8.828124-8.824219 0-4.878906 3.953124-8.828125 8.828124-8.828125h70.621094c4.875 0 8.828125 3.949219 8.828125 8.828125 0 4.875-3.953125 8.824219-8.828125 8.824219zm0 0" fill="#95a5a5"/><path d="m58.171875 219.984375v.707031h-5.207031c-4.875 0-8.828125-3.953125-8.828125-8.828125v-88.277343c0-4.875 3.953125-8.828126 8.828125-8.828126h194.207031c4.875 0 8.828125 3.953126 8.828125 8.828126v88.277343c0 4.875-3.953125 8.828125-8.828125 8.828125h-14.035156v-.707031zm0 0" fill="#b0d3f0"/><path d="m123.585938 300.136719h-44.136719c-4.875 0-8.828125 3.953125-8.828125 8.828125s3.953125 8.828125 8.828125 8.828125h44.136719c4.875 0 8.828124-3.953125 8.828124-8.828125s-3.953124-8.828125-8.828124-8.828125zm0 0" fill="#ecf0f1"/><path d="m48.992188 301.636719c-.449219-.347657-.957032-.613281-1.5-.792969-.527344-.269531-1.097657-.445312-1.6875-.527344-1.097657-.265625-2.246094-.265625-3.34375 0-.585938.078125-1.152344.257813-1.675782.527344-.566406.195312-1.105468.460938-1.597656.792969l-1.316406 1.0625c-1.617188 1.6875-2.53125 3.929687-2.5625 6.265625-.027344 1.160156.214844 2.308594.707031 3.355468.449219 1.070313 1.074219 2.054688 1.855469 2.914063l1.316406 1.058594c.492188.332031 1.03125.597656 1.597656.792969.523438.269531 1.089844.449218 1.675782.53125.554687.101562 1.113281.160156 1.675781.175781.5625-.015625 1.117187-.074219 1.667969-.175781.589843-.082032 1.160156-.261719 1.6875-.53125.542968-.175782 1.050781-.445313 1.5-.792969.523437-.355469.972656-.707031 1.414062-1.058594.777344-.859375 1.40625-1.84375 1.851562-2.914063.453126-1.0625.695313-2.203124.707032-3.355468-.035156-2.335938-.949219-4.574219-2.558594-6.265625-.441406-.355469-.890625-.707031-1.414062-1.0625zm0 0" fill="#ecf0f1"/><path d="m79.449219 282.484375h44.136719c4.875 0 8.828124-3.953125 8.828124-8.828125s-3.953124-8.828125-8.828124-8.828125h-44.136719c-4.875 0-8.828125 3.953125-8.828125 8.828125s3.953125 8.828125 8.828125 8.828125zm0 0" fill="#ecf0f1"/><path d="m48.992188 266.355469c-.449219-.351563-.957032-.625-1.5-.804688-.527344-.269531-1.097657-.445312-1.6875-.519531-1.097657-.273438-2.246094-.273438-3.34375 0-.585938.074219-1.152344.25-1.675782.519531-.566406.199219-1.105468.46875-1.597656.804688l-1.316406 1.058593c-1.613282 1.683594-2.527344 3.914063-2.5625 6.242188-.027344 1.15625.214844 2.304688.707031 3.351562.449219 1.070313 1.074219 2.054688 1.855469 2.914063l1.316406 1.050781c.492188.335938 1.03125.605469 1.597656.804688.527344.257812 1.09375.4375 1.675782.527344.554687.101562 1.113281.160156 1.675781.179687.5625-.019531 1.117187-.078125 1.667969-.179687.585937-.089844 1.15625-.269532 1.6875-.527344.542968-.179688 1.050781-.453125 1.5-.804688.523437-.34375.972656-.695312 1.414062-1.050781.777344-.859375 1.40625-1.84375 1.851562-2.914063.453126-1.058593.695313-2.199218.707032-3.351562-.03125-2.339844-.945313-4.578125-2.558594-6.269531-.441406-.324219-.890625-.679688-1.414062-1.03125zm0 0" fill="#ecf0f1"/><path d="m123.585938 335.449219h-44.136719c-4.875 0-8.828125 3.953125-8.828125 8.828125s3.953125 8.824218 8.828125 8.824218h44.136719c4.875 0 8.828124-3.949218 8.828124-8.824218s-3.953124-8.828125-8.828124-8.828125zm0 0" fill="#ecf0f1"/><path d="m48.992188 336.976562c-.449219-.351562-.957032-.625-1.5-.804687-.527344-.269531-1.097657-.445313-1.6875-.519531-1.097657-.273438-2.246094-.273438-3.34375 0-.585938.074218-1.152344.25-1.675782.519531-.566406.199219-1.105468.46875-1.597656.804687l-1.316406 1.058594c-1.613282 1.683594-2.527344 3.910156-2.5625 6.242188-.027344 1.15625.214844 2.304687.707031 3.351562.449219 1.070313 1.074219 2.054688 1.855469 2.914063l1.316406 1.050781c.492188.335938 1.03125.605469 1.597656.804688.527344.257812 1.09375.4375 1.675782.527343.554687.101563 1.113281.160157 1.675781.175781.5625-.015624 1.117187-.074218 1.667969-.175781.585937-.089843 1.15625-.269531 1.6875-.527343.542968-.183594 1.050781-.453126 1.5-.804688.523437-.34375.972656-.695312 1.414062-1.050781.777344-.859375 1.40625-1.84375 1.851562-2.914063.453126-1.058594.695313-2.199218.707032-3.351562-.03125-2.339844-.945313-4.578125-2.558594-6.269532-.441406-.324218-.890625-.679687-1.414062-1.03125zm0 0" fill="#ecf0f1"/><path d="m123.585938 370.757812h-44.136719c-4.875 0-8.828125 3.953126-8.828125 8.828126s3.953125 8.828124 8.828125 8.828124h44.136719c4.875 0 8.828124-3.953124 8.828124-8.828124s-3.953124-8.828126-8.828124-8.828126zm0 0" fill="#ecf0f1"/><path d="m48.992188 372.257812c-.449219-.347656-.957032-.617187-1.5-.792968-.527344-.269532-1.097657-.449219-1.6875-.53125-1.097657-.261719-2.246094-.261719-3.34375 0-.585938.082031-1.152344.261718-1.675782.53125-.566406.195312-1.105468.460937-1.597656.792968l-1.316406 1.0625c-1.617188 1.6875-2.53125 3.929688-2.5625 6.265626-.027344 1.160156.214844 2.308593.707031 3.355468.449219 1.070313 1.074219 2.054688 1.855469 2.914063l1.316406 1.058593c.492188.332032 1.03125.597657 1.597656.792969.523438.269531 1.089844.449219 1.675782.53125.554687.101563 1.113281.160157 1.675781.175781.5625-.015624 1.117187-.074218 1.667969-.175781.589843-.082031 1.160156-.261719 1.6875-.53125.542968-.175781 1.050781-.445312 1.5-.792969.523437-.355468.972656-.707031 1.414062-1.058593.777344-.859375 1.40625-1.84375 1.851562-2.914063.453126-1.0625.695313-2.203125.707032-3.355468-.035156-2.335938-.949219-4.574219-2.558594-6.265626-.441406-.355468-.890625-.707031-1.414062-1.0625zm0 0" fill="#ecf0f1"/><path d="m167.722656 273.65625h79.449219c4.875 0 8.828125 3.949219 8.828125 8.828125v88.273437c0 4.875-3.953125 8.828126-8.828125 8.828126h-79.449219c-4.875 0-8.824218-3.953126-8.824218-8.828126v-88.273437c0-4.878906 3.949218-8.828125 8.824218-8.828125zm0 0" fill="#f0c419"/><path d="m180.964844 220.691406h-122.792969v-.707031l61-61.085937 36.195313 36.28125.882812.792968zm0 0" fill="#71c285"/><path d="m233.136719 219.984375v.707031h-52.171875l-24.714844-24.71875-.882812-.792968 25.597656-23.925782zm0 0" fill="#4fba6f"/><path d="m211.863281 141.242188h282.480469c9.75 0 17.65625 7.902343 17.65625 17.65625v335.445312c0 9.75-7.90625 17.65625-17.65625 17.65625h-282.480469c-9.75 0-17.65625-7.90625-17.65625-17.65625v-335.445312c0-9.753907 7.90625-17.65625 17.65625-17.65625zm0 0" fill="#e6e7e8"/><path d="m238.34375 264.828125c4.875 0 8.828125-3.953125 8.828125-8.828125v-44.136719h44.136719c4.878906 0 8.828125-3.953125 8.828125-8.828125s-3.949219-8.828125-8.828125-8.828125h-44.136719c-9.75 0-17.65625 7.90625-17.65625 17.65625v44.136719c0 4.875 3.953125 8.828125 8.828125 8.828125zm0 0" fill="#14a085"/><path d="m279.894531 232.105469c-3.460937-3.347657-8.96875-3.300781-12.371093.105469-3.40625 3.40625-3.453126 8.910156-.109376 12.375l17.65625 17.65625c1.652344 1.65625 3.898438 2.585937 6.238282 2.585937h.882812c2.632813-.261719 5.003906-1.6875 6.472656-3.882813l35.308594-52.96875c1.75-2.621093 1.96875-5.980468.570313-8.808593-1.394531-2.828125-4.195313-4.695313-7.34375-4.898438-3.148438-.203125-6.164063 1.285157-7.914063 3.910157l-29.335937 44.015624zm0 0" fill="#14a085"/><path d="m238.34375 361.929688c4.875 0 8.828125-3.949219 8.828125-8.828126v-44.136718h44.136719c4.878906 0 8.828125-3.953125 8.828125-8.828125s-3.949219-8.828125-8.828125-8.828125h-44.136719c-9.75 0-17.65625 7.90625-17.65625 17.65625v44.136718c0 4.878907 3.953125 8.828126 8.828125 8.828126zm0 0" fill="#14a085"/><path d="m319.277344 295.238281-29.335938 44.015625-10.046875-10.046875c-3.460937-3.34375-8.96875-3.296875-12.371093.109375-3.40625 3.402344-3.453126 8.910156-.109376 12.371094l17.65625 17.65625c1.652344 1.65625 3.898438 2.585938 6.238282 2.585938.285156 0 .574218 0 .882812-.042969 2.632813-.261719 5.003906-1.6875 6.472656-3.882813l35.308594-52.964844c1.75-2.625 1.96875-5.984374.570313-8.8125-1.394531-2.828124-4.195313-4.695312-7.34375-4.898437-3.148438-.203125-6.164063 1.285156-7.914063 3.910156zm0 0" fill="#14a085"/><path d="m300.136719 397.242188c0-4.875-3.949219-8.828126-8.828125-8.828126h-44.136719c-9.75 0-17.65625 7.902344-17.65625 17.65625v44.136719c0 4.875 3.953125 8.828125 8.828125 8.828125s8.828125-3.953125 8.828125-8.828125v-44.136719h44.136719c4.878906 0 8.828125-3.953124 8.828125-8.828124zm0 0" fill="#14a085"/><path d="m319.277344 392.34375-29.335938 44.011719-10.046875-10.042969c-3.460937-3.347656-8.96875-3.300781-12.371093.105469-3.40625 3.40625-3.453126 8.910156-.109376 12.375l17.65625 17.65625c1.652344 1.65625 3.898438 2.585937 6.238282 2.585937.285156 0 .574218 0 .882812-.042968 2.632813-.261719 5.003906-1.6875 6.472656-3.886719l35.308594-52.964844c1.75-2.625 1.96875-5.980469.570313-8.808594-1.394531-2.828125-4.195313-4.695312-7.34375-4.902343-3.148438-.203126-6.164063 1.289062-7.914063 3.914062zm0 0" fill="#14a085"/><g fill="#3f5c6c"><path d="m370.757812 220.691406h61.792969c4.875 0 8.828125-3.953125 8.828125-8.828125s-3.953125-8.828125-8.828125-8.828125h-61.792969c-4.875 0-8.828124 3.953125-8.828124 8.828125s3.953124 8.828125 8.828124 8.828125zm0 0"/><path d="m467.863281 220.691406h8.828125c4.875 0 8.824219-3.953125 8.824219-8.828125s-3.949219-8.828125-8.824219-8.828125h-8.828125c-4.875 0-8.828125 3.953125-8.828125 8.828125s3.953125 8.828125 8.828125 8.828125zm0 0"/><path d="m406.070312 247.171875c0 4.875 3.949219 8.828125 8.828126 8.828125h35.308593c4.875 0 8.828125-3.953125 8.828125-8.828125s-3.953125-8.828125-8.828125-8.828125h-35.308593c-4.878907 0-8.828126 3.953125-8.828126 8.828125zm0 0"/><path d="m370.757812 256h8.828126c4.875 0 8.828124-3.953125 8.828124-8.828125s-3.953124-8.828125-8.828124-8.828125h-8.828126c-4.875 0-8.828124 3.953125-8.828124 8.828125s3.953124 8.828125 8.828124 8.828125zm0 0"/><path d="m370.757812 317.792969h61.792969c4.875 0 8.828125-3.953125 8.828125-8.828125s-3.953125-8.828125-8.828125-8.828125h-61.792969c-4.875 0-8.828124 3.953125-8.828124 8.828125s3.953124 8.828125 8.828124 8.828125zm0 0"/><path d="m476.691406 300.136719h-8.828125c-4.875 0-8.828125 3.953125-8.828125 8.828125s3.953125 8.828125 8.828125 8.828125h8.828125c4.875 0 8.824219-3.953125 8.824219-8.828125s-3.949219-8.828125-8.824219-8.828125zm0 0"/><path d="m450.207031 335.449219h-35.308593c-4.878907 0-8.828126 3.953125-8.828126 8.828125s3.949219 8.824218 8.828126 8.824218h35.308593c4.875 0 8.828125-3.949218 8.828125-8.824218s-3.953125-8.828125-8.828125-8.828125zm0 0"/><path d="m370.757812 353.101562h8.828126c4.875 0 8.828124-3.949218 8.828124-8.824218s-3.953124-8.828125-8.828124-8.828125h-8.828126c-4.875 0-8.828124 3.953125-8.828124 8.828125s3.953124 8.824218 8.828124 8.824218zm0 0"/><path d="m370.757812 414.898438h61.792969c4.875 0 8.828125-3.953126 8.828125-8.828126s-3.953125-8.828124-8.828125-8.828124h-61.792969c-4.875 0-8.828124 3.953124-8.828124 8.828124s3.953124 8.828126 8.828124 8.828126zm0 0"/><path d="m476.691406 397.242188h-8.828125c-4.875 0-8.828125 3.953124-8.828125 8.828124s3.953125 8.828126 8.828125 8.828126h8.828125c4.875 0 8.824219-3.953126 8.824219-8.828126s-3.949219-8.828124-8.824219-8.828124zm0 0"/><path d="m450.207031 432.550781h-35.308593c-4.878907 0-8.828126 3.953125-8.828126 8.828125s3.949219 8.828125 8.828126 8.828125h35.308593c4.875 0 8.828125-3.953125 8.828125-8.828125s-3.953125-8.828125-8.828125-8.828125zm0 0"/><path d="m379.585938 432.550781h-8.828126c-4.875 0-8.828124 3.953125-8.828124 8.828125s3.953124 8.828125 8.828124 8.828125h8.828126c4.875 0 8.828124-3.953125 8.828124-8.828125s-3.953124-8.828125-8.828124-8.828125zm0 0"/></g></svg>