<?xml version="1.0"?>
<svg xmlns="http://www.w3.org/2000/svg" viewBox="0 0 64 64" width="512" height="512"><g id="Flat"><path d="M7,22H57a2,2,0,0,1,2,2V57a0,0,0,0,1,0,0H5a0,0,0,0,1,0,0V24A2,2,0,0,1,7,22Z" style="fill:#a7d6dd"/><path d="M3,57H61v2a2,2,0,0,1-2,2H5a2,2,0,0,1-2-2Z" style="fill:#6cbbc7"/><rect x="9" y="13" width="46" height="40" style="fill:#02998a"/><path d="M37,13,36,3H28L27,13h0a5,5,0,0,0,5,5h0a5,5,0,0,0,5-5Z" style="fill:#fdb62f"/><path d="M47,13,44,3H36l1,10h0a5,5,0,0,0,5,5h0a5,5,0,0,0,5-5Z" style="fill:#ff6536"/><path d="M57,13,52,3H44l3,10h0a5,5,0,0,0,5,5h0a5,5,0,0,0,5-5Z" style="fill:#fdb62f"/><path d="M17,13,20,3h8L27,13h0a5,5,0,0,1-5,5h0a5,5,0,0,1-5-5Z" style="fill:#ff6536"/><path d="M17,13h0a5,5,0,0,1-5,5h0a5,5,0,0,1-5-5H7L12,3h8Z" style="fill:#fdb62f"/><path d="M49.142,27H20.82l-1-5H15v2h3.18l.792,3.959L22.18,44h24.7ZM45.125,42H23.82l-2.6-13H46.858Z" style="fill:#fdb62f"/><path d="M24,47a3,3,0,1,0,3-3A3,3,0,0,0,24,47Zm3-1a1,1,0,1,1-1,1A1,1,0,0,1,27,46Z" style="fill:#fdb62f"/><path d="M39,47a3,3,0,1,0,3-3A3,3,0,0,0,39,47Zm3-1a1,1,0,1,1-1,1A1,1,0,0,1,42,46Z" style="fill:#fdb62f"/></g></svg>
